# xmcd
#
# Track frame offsets: 
#        150
#        17981
#        33015
#        51721
#        68742
#        86053
#        100026
#        114318
#        136312
#        150706
#        163798
#        177383
#
# Disc length: 2573 seconds
#
# Revision: 0
# Processed by: cddbd v1.5.2PL0 Copyright (c) Steve Scherf et al.
# Submitted via: ExactAudioCopyFreeDBPlugin 1.0
#
DISCID=9c0a0b0c
DTITLE=Studio Rio - Studio Rio Presents: The Brazil Connection
DYEAR=2014
DGENRE=Samba
TTITLE0=Bill Withers with Studio Rio - Lovely Day
TTITLE1=Aretha Franklin with Studio Rio - Walk on By
TTITLE2=Marvin Gaye with Studio Rio - Sexual Healing
TTITLE3=Billie Holiday with Studio Rio - You've Changed
TTITLE4=Sly and The Family Stone with Studio Rio - Family Affair
TTITLE5=The Isley Brothers with Studio Rio - It's Your Thing
TTITLE6=Mel Torme with Studio Rio - I've Got You Under My Skin
TTITLE7=Nina Simone with Studio Rio - I Wish I Knew How It Would Feel 
TTITLE7=to Be Free
TTITLE8=Johnny Nash with Studio Rio - I Can See Clearly Now
TTITLE9=Dave Brubeck with Carmen McRae with Studio Rio - Take Five
TTITLE10=Andy Williams with Studio Rio - Music to Watch Girls By
TTITLE11=Sarah Vaughan with Studio Rio - Summertime
EXTD=
EXTT0=
EXTT1=
EXTT2=
EXTT3=
EXTT4=
EXTT5=
EXTT6=
EXTT7=
EXTT8=
EXTT9=
EXTT10=
EXTT11=
PLAYORDER=
